<mxfile host="65bd71144e">
    <diagram id="hd1UMDfuhgnfBDAmzGSm" name="Page-1">
        <mxGraphModel dx="1130" dy="531" grid="1" gridSize="10" guides="1" tooltips="1" connect="1" arrows="1" fold="1" page="1" pageScale="1" pageWidth="850" pageHeight="1100" math="0" shadow="0">
            <root>
                <mxCell id="0"/>
                <mxCell id="1" parent="0"/>
                <mxCell id="3" style="edgeStyle=none;html=1;exitX=0.5;exitY=1;exitDx=0;exitDy=0;" edge="1" parent="1" source="2">
                    <mxGeometry relative="1" as="geometry">
                        <mxPoint x="425" y="160" as="targetPoint"/>
                    </mxGeometry>
                </mxCell>
                <mxCell id="2" value="Start" style="shape=stencil(tZThDoIgEICfhr8NYT1Ao3oP0jOZBAwo6+1D0S1NXWu4Oba70+8+kRNR5ipuABFcIXpEhGQYhzXEzSTmzkDuY/LBreAXCbHivNU1NKLwPUOoCqzwbZWeED6Ee9qLslwrFSBCKzeqfNQDjAsVnsXPCOvbv0aRCfwbeLC9ZMwicv4du9tvA8428h1jB/vkvunAY+Nsqw+XDJz9j6UsZJYON2UXntdXq++qmJWx7Vytn/fpME6HdVZooS1lpbaw4lMKKeNMr+wgSCmMg8TeA32xffdiX/5dNv7IusQb);whiteSpace=wrap;html=1;" vertex="1" parent="1">
                    <mxGeometry x="365" width="120" height="120" as="geometry"/>
                </mxCell>
                <mxCell id="5" style="edgeStyle=none;html=1;" edge="1" parent="1" source="4">
                    <mxGeometry relative="1" as="geometry">
                        <mxPoint x="425" y="260" as="targetPoint"/>
                    </mxGeometry>
                </mxCell>
                <mxCell id="4" value="Ask an integer value to users, celsius." style="whiteSpace=wrap;html=1;" vertex="1" parent="1">
                    <mxGeometry x="230" y="160" width="390" height="60" as="geometry"/>
                </mxCell>
                <mxCell id="7" style="edgeStyle=none;html=1;exitX=0.5;exitY=1;exitDx=0;exitDy=0;" edge="1" parent="1" source="6">
                    <mxGeometry relative="1" as="geometry">
                        <mxPoint x="425" y="400" as="targetPoint"/>
                    </mxGeometry>
                </mxCell>
                <mxCell id="6" value="Calculate Celsius to Fahrenheit." style="whiteSpace=wrap;html=1;" vertex="1" parent="1">
                    <mxGeometry x="230" y="270" width="390" height="60" as="geometry"/>
                </mxCell>
                <mxCell id="9" style="edgeStyle=none;html=1;exitX=0.5;exitY=1;exitDx=0;exitDy=0;" edge="1" parent="1" source="8">
                    <mxGeometry relative="1" as="geometry">
                        <mxPoint x="425" y="520" as="targetPoint"/>
                    </mxGeometry>
                </mxCell>
                <mxCell id="8" value="Print the converted Fahrenheit amount." style="whiteSpace=wrap;html=1;" vertex="1" parent="1">
                    <mxGeometry x="230" y="400" width="390" height="60" as="geometry"/>
                </mxCell>
                <mxCell id="10" value="End" style="whiteSpace=wrap;html=1;" vertex="1" parent="1">
                    <mxGeometry x="365" y="520" width="120" height="60" as="geometry"/>
                </mxCell>
            </root>
        </mxGraphModel>
    </diagram>
</mxfile>